<svg width="23" height="29" viewBox="0 0 23 29" fill="none" xmlns="http://www.w3.org/2000/svg">
<path d="M3.26155 22.3297L0.104047 27.2048L0.440047 28.7992L2.03005 28.4587L5.18605 23.5867C4.50738 23.2276 3.86317 22.8068 3.26155 22.3297ZM16.6295 20.6272C16.6505 20.5837 16.664 20.5357 16.6835 20.4892C16.763 20.3137 16.8335 20.1382 16.8905 19.9537C16.8995 19.9207 16.904 19.8877 16.9145 19.8577C16.9731 19.6562 17.0221 19.4519 17.0615 19.2457V19.2142C17.354 17.4607 16.844 15.5047 15.677 13.7377L17.342 11.1667C19.2605 11.4112 20.9195 10.9282 21.7175 9.69375C23.102 7.55925 21.4175 4.00575 17.96 1.75425C14.4995 -0.498751 10.5755 -0.593252 9.19405 1.53825C8.39305 2.77425 8.62705 4.48875 9.63355 6.14775L7.96555 8.71875C5.88205 8.36925 3.89155 8.69475 2.41105 9.67875C2.40205 9.68175 2.39155 9.68475 2.38555 9.69075C2.21257 9.80835 2.0463 9.93555 1.88755 10.0717C1.86205 10.0927 1.83205 10.1122 1.81105 10.1332C1.66704 10.2605 1.53127 10.3968 1.40455 10.5412C1.37455 10.5772 1.33255 10.6087 1.30405 10.6462C1.14429 10.8272 0.99885 11.0203 0.869047 11.2237C-1.20695 14.4232 0.564547 19.2652 4.81855 22.0372C9.07555 24.8092 14.2085 24.4582 16.28 21.2587C16.4105 21.0562 16.5305 20.8447 16.6295 20.6272ZM15.407 5.69025C14.0765 4.82475 13.427 3.45975 13.9595 2.63625C14.4905 1.81575 16.001 1.85325 17.3285 2.71875C18.662 3.58425 19.3055 4.95225 18.776 5.77275C18.2465 6.59325 16.739 6.55575 15.407 5.69025Z" fill="#F72C25"/>
</svg>
